<svg width="800" height="153" viewBox="0 0 800 153" fill="none" xmlns="http://www.w3.org/2000/svg">
<path fill-rule="evenodd" clip-rule="evenodd" d="M177.643 145.046C130.823 145.046 123.332 91.2965 150.557 70.1586C148.95 66.8728 147.274 63.3937 145.528 59.8277L112.888 109.922L38.6338 109.061L33.9362 102.243L51.6441 76.818C48.4521 75.7479 45.1068 75.2137 41.7423 75.2366C4.77218 75.2366 2.9909 131.464 42.371 131.464C53.3206 131.464 60.9347 126.192 65.2132 118.971L79.9524 119.551C74.7133 133.748 62.3667 144.976 42.8425 144.976C-15.4505 144.976 -12.796 61.6542 41.917 61.6542C48.0159 61.5681 54.0654 62.7647 59.6773 65.1684L73.2115 45.7006L67.5009 34.9648L50.998 37.2841C45.008 29.2015 55.0669 16.6909 66.7151 18.202C71.9541 18.8873 94.6566 20.9255 94.6566 20.9255L95.4075 31.064L79.5856 33.3482L82.9212 39.8846L135.469 39.1291C131.085 30.0624 127.104 21.8568 124.502 16.4449C118.843 4.72509 135.486 2.26515 142.14 9.01241L138.647 20.6795C138.647 20.6795 163.812 72.3198 171.356 86.7456C173.102 89.9259 179.197 97.1125 184.82 99.7305L180.332 108.077C169.016 104.65 163.41 96.3393 158.171 85.7967C157.717 84.8831 157.228 83.8991 156.722 82.8448C141.005 98.1316 146.925 131.323 177.102 131.323C212.902 131.323 213.129 75.3069 176.473 75.3069H175.477L170.658 61.9881C172.64 61.7473 174.634 61.6243 176.63 61.6191C231.221 61.7245 230.872 145.046 177.643 145.046ZM61.2141 82.7745L48.361 99.8535L69.1076 99.6778C68.4314 93.3136 65.6519 87.3623 61.2141 82.7745ZM79.7603 58.176L69.5441 71.74C77.248 79.053 81.9149 89.028 82.6068 99.6603L101.817 99.5197L79.7603 58.176ZM89.1556 52.114L110.426 93.8091L138.368 50.8314L89.1556 52.114Z" fill="#CDCBCB"/>
<line x1="278.326" x2="278.326" y2="153.006" stroke="#CDCBCB" stroke-width="3"/>
<path d="M717.305 129.418C715.064 129.418 713.328 128.802 712.096 127.57C710.975 126.225 710.415 124.433 710.415 122.192V16.8306C710.415 14.478 711.031 12.7416 712.264 11.6213C713.496 10.389 715.233 9.77289 717.473 9.77289H757.299C769.958 9.77289 779.704 12.7416 786.538 18.6791C793.372 24.6165 796.789 33.0746 796.789 44.0533C796.789 50.999 795.22 57.0485 792.083 62.2018C789.059 67.243 784.578 71.1079 778.64 73.7966C772.703 76.3732 765.589 77.6616 757.299 77.6616L758.979 75.477H762.34C766.709 75.477 770.518 76.5973 773.767 78.8378C777.016 81.0784 779.984 84.6633 782.673 89.5925L798.805 119.672C799.701 121.24 800.093 122.809 799.981 124.377C799.981 125.833 799.477 127.066 798.469 128.074C797.461 128.97 796.004 129.418 794.1 129.418C792.195 129.418 790.627 128.97 789.395 128.074C788.162 127.178 787.098 125.889 786.202 124.209L767.885 90.2646C765.309 85.4475 762.34 82.2547 758.979 80.6863C755.618 79.0059 751.193 78.1657 745.704 78.1657H724.195V122.192C724.195 124.433 723.635 126.225 722.514 127.57C721.394 128.802 719.658 129.418 717.305 129.418ZM724.195 67.243H755.282C764.469 67.243 771.414 65.3385 776.119 61.5296C780.825 57.6086 783.177 51.7832 783.177 44.0533C783.177 36.5475 780.825 30.8901 776.119 27.0811C771.414 23.1602 764.469 21.1997 755.282 21.1997H724.195V67.243Z" fill="#CDCBCB"/>
<path d="M620.008 128.242C617.543 128.242 615.639 127.626 614.294 126.394C613.062 125.049 612.446 123.145 612.446 120.68V17.3347C612.446 14.8701 613.062 13.0217 614.294 11.7894C615.639 10.4451 617.543 9.77289 620.008 9.77289H682.519C684.424 9.77289 685.88 10.277 686.888 11.2853C687.897 12.2935 688.401 13.6939 688.401 15.4863C688.401 17.3908 687.897 18.8471 686.888 19.8554C685.88 20.8636 684.424 21.3677 682.519 21.3677H625.889V62.3698H678.99C680.895 62.3698 682.351 62.8739 683.359 63.8822C684.368 64.7784 684.872 66.1787 684.872 68.0832C684.872 69.9877 684.368 71.444 683.359 72.4523C682.351 73.4605 680.895 73.9647 678.99 73.9647H625.889V116.647H682.519C684.424 116.647 685.88 117.151 686.888 118.16C687.897 119.168 688.401 120.568 688.401 122.361C688.401 124.265 687.897 125.721 686.888 126.73C685.88 127.738 684.424 128.242 682.519 128.242H620.008Z" fill="#F2F2F2"/>
<path d="M514.31 129.418C512.069 129.418 510.333 128.802 509.101 127.57C507.98 126.225 507.42 124.433 507.42 122.192V15.6544C507.42 13.3018 507.98 11.5653 509.101 10.4451C510.333 9.21277 512.069 8.59662 514.31 8.59662C516.55 8.59662 518.231 9.21277 519.351 10.4451C520.583 11.5653 521.2 13.3018 521.2 15.6544V63.5461H521.536L576.317 12.4616C577.661 11.1172 579.006 10.165 580.35 9.60486C581.694 8.9327 583.151 8.59662 584.719 8.59662C586.848 8.59662 588.36 9.10074 589.256 10.109C590.265 11.1172 590.657 12.3495 590.433 13.8059C590.209 15.2622 589.424 16.6626 588.08 18.0069L530.778 71.108L530.946 63.7141L590.769 119C592.449 120.568 593.345 122.192 593.457 123.873C593.569 125.441 593.065 126.786 591.945 127.906C590.937 128.914 589.368 129.418 587.24 129.418C585.559 129.418 584.103 129.026 582.871 128.242C581.75 127.57 580.462 126.506 579.006 125.049L521.536 72.4523H521.2V122.192C521.2 124.433 520.639 126.225 519.519 127.57C518.399 128.802 516.663 129.418 514.31 129.418Z" fill="#CDCBCB"/>
<path d="M471.151 129.418C468.91 129.418 467.174 128.802 465.942 127.57C464.821 126.225 464.261 124.433 464.261 122.192V15.8224C464.261 13.4698 464.821 11.6774 465.942 10.4451C467.174 9.21277 468.91 8.59662 471.151 8.59662C473.391 8.59662 475.072 9.21277 476.192 10.4451C477.424 11.6774 478.041 13.4698 478.041 15.8224V122.192C478.041 124.433 477.48 126.225 476.36 127.57C475.24 128.802 473.503 129.418 471.151 129.418Z" fill="#F2F2F2"/>
<path d="M358.264 128.242C355.799 128.242 353.895 127.626 352.551 126.394C351.318 125.049 350.702 123.145 350.702 120.68V17.3347C350.702 14.8701 351.318 13.0217 352.551 11.7894C353.895 10.4451 355.799 9.77289 358.264 9.77289H398.09C406.268 9.77289 413.157 11.0052 418.759 13.4698C424.472 15.8224 428.841 19.2952 431.866 23.8883C434.891 28.4815 436.403 34.0829 436.403 40.6925C436.403 48.0863 434.219 54.2478 429.85 59.177C425.592 64.1062 419.767 67.355 412.373 68.9234V66.5708C420.775 67.5791 427.329 70.6038 432.034 75.6451C436.851 80.6863 439.26 87.3519 439.26 95.642C439.26 106.173 435.843 114.239 429.009 119.84C422.176 125.441 412.541 128.242 400.106 128.242H358.264ZM364.145 117.151H398.762C407.724 117.151 414.446 115.359 418.927 111.774C423.408 108.189 425.648 102.756 425.648 95.4739C425.648 88.0801 423.408 82.6468 418.927 79.1739C414.446 75.589 407.724 73.7966 398.762 73.7966H364.145V117.151ZM364.145 62.7059H396.073C404.811 62.7059 411.421 60.9134 415.902 57.3286C420.495 53.7437 422.792 48.5904 422.792 41.8688C422.792 34.9231 420.495 29.7138 415.902 26.2409C411.421 22.656 404.811 20.8636 396.073 20.8636H364.145V62.7059Z" fill="#CDCBCB"/>
</svg>
