<svg width="137" height="29" viewBox="0 0 137 29" fill="none" xmlns="http://www.w3.org/2000/svg">
<path fill-rule="evenodd" clip-rule="evenodd" d="M29.2975 27C21.5759 27 20.3403 18.1532 24.8305 14.6741C24.5655 14.1333 24.289 13.5607 24.001 12.9737L18.618 21.2188L6.37164 21.0771L5.59688 19.955L8.51734 15.7702C7.99091 15.5941 7.43919 15.5062 6.8843 15.5099C0.787046 15.5099 0.49327 24.7645 6.98798 24.7645C8.79383 24.7645 10.0496 23.8968 10.7552 22.7082L13.186 22.8036C12.322 25.1404 10.2857 26.9884 7.06575 26.9884C-2.54815 26.9884 -2.11037 13.2744 6.9131 13.2744C7.91896 13.2602 8.91667 13.4571 9.8422 13.8528L12.0743 10.6485L11.1325 8.8815L8.41077 9.26325C7.42289 7.93291 9.08185 5.87377 11.0029 6.12249C11.8669 6.23528 15.6111 6.57075 15.6111 6.57075L15.735 8.23946L13.1256 8.61543L13.6757 9.69127L22.342 9.56691C21.6191 8.07462 20.9624 6.72403 20.5333 5.83328C19.6001 3.90429 22.3449 3.4994 23.4422 4.60995L22.8662 6.53027C22.8662 6.53027 27.0165 15.0298 28.2607 17.4042C28.5487 17.9277 29.5539 19.1105 30.4813 19.5414L29.7411 20.9151C27.8748 20.3512 26.9502 18.9833 26.0862 17.248C26.0113 17.0976 25.9307 16.9357 25.8471 16.7622C23.255 19.2782 24.2314 24.7413 29.2083 24.7413C35.1125 24.7413 35.15 15.5215 29.1046 15.5215H28.9404L28.1455 13.3293C28.4724 13.2897 28.8013 13.2694 29.1305 13.2686C38.1338 13.2859 38.0762 27 29.2975 27ZM10.0957 16.7506L7.97587 19.5617L11.3975 19.5327C11.286 18.4852 10.8276 17.5057 10.0957 16.7506ZM13.1544 12.7019L11.4695 14.9344C12.74 16.1381 13.5097 17.7799 13.6238 19.5299L16.792 19.5067L13.1544 12.7019ZM14.7039 11.7041L18.2119 18.5668L22.8201 11.493L14.7039 11.7041Z" fill="#FF671F"/>
<line x1="50.9726" x2="50.9726" y2="29" stroke="#FF671F"/>
<path d="M123.709 26.9C123.349 26.9 123.07 26.7832 122.872 26.5497C122.692 26.2949 122.602 25.9551 122.602 25.5305V5.56071C122.602 5.11481 122.701 4.7857 122.899 4.57337C123.097 4.33981 123.376 4.22302 123.736 4.22302H130.137C132.172 4.22302 133.738 4.7857 134.836 5.91106C135.935 7.03641 136.484 8.63952 136.484 10.7204C136.484 12.0368 136.232 13.1834 135.728 14.1601C135.241 15.1156 134.521 15.8482 133.567 16.3578C132.613 16.8461 131.469 17.0903 130.137 17.0903L130.407 16.6763H130.947C131.649 16.6763 132.262 16.8886 132.784 17.3133C133.306 17.7379 133.783 18.4174 134.215 19.3516L136.808 25.0527C136.952 25.35 137.015 25.6473 136.997 25.9445C136.997 26.2206 136.916 26.4541 136.754 26.6452C136.592 26.8151 136.358 26.9 136.052 26.9C135.746 26.9 135.494 26.8151 135.295 26.6452C135.097 26.4754 134.926 26.2312 134.782 25.9127L131.838 19.479C131.424 18.566 130.947 17.9609 130.407 17.6636C129.867 17.3451 129.156 17.1859 128.273 17.1859H124.816V25.5305C124.816 25.9551 124.726 26.2949 124.546 26.5497C124.366 26.7832 124.087 26.9 123.709 26.9ZM124.816 15.1156H129.813C131.289 15.1156 132.406 14.7547 133.162 14.0327C133.918 13.2896 134.296 12.1855 134.296 10.7204C134.296 9.29774 133.918 8.22547 133.162 7.50354C132.406 6.76038 131.289 6.3888 129.813 6.3888H124.816V15.1156Z" fill="#FF671F"/>
<path d="M108.071 26.6771C107.675 26.6771 107.369 26.5603 107.153 26.3267C106.955 26.0719 106.856 25.711 106.856 25.2438V5.65626C106.856 5.18913 106.955 4.83878 107.153 4.60522C107.369 4.35042 107.675 4.22302 108.071 4.22302H118.118C118.424 4.22302 118.658 4.31857 118.82 4.50967C118.982 4.70077 119.063 4.96618 119.063 5.30591C119.063 5.66688 118.982 5.94291 118.82 6.134C118.658 6.3251 118.424 6.42065 118.118 6.42065H109.016V14.192H117.551C117.857 14.192 118.091 14.2875 118.253 14.4786C118.415 14.6485 118.496 14.9139 118.496 15.2749C118.496 15.6358 118.415 15.9119 118.253 16.103C118.091 16.2941 117.857 16.3896 117.551 16.3896H109.016V24.4794H118.118C118.424 24.4794 118.658 24.575 118.82 24.7661C118.982 24.9572 119.063 25.2226 119.063 25.5623C119.063 25.9233 118.982 26.1993 118.82 26.3904C118.658 26.5815 118.424 26.6771 118.118 26.6771H108.071Z" fill="#FFC72C"/>
<path d="M91.0831 26.8999C90.723 26.8999 90.4439 26.7832 90.2458 26.5496C90.0658 26.2948 89.9757 25.9551 89.9757 25.5304V5.33769C89.9757 4.89179 90.0658 4.56268 90.2458 4.35035C90.4439 4.11678 90.723 4 91.0831 4C91.4432 4 91.7133 4.11678 91.8933 4.35035C92.0914 4.56268 92.1904 4.89179 92.1904 5.33769V14.4149H92.2444L101.049 4.73254C101.265 4.47774 101.481 4.29726 101.697 4.1911C101.913 4.0637 102.147 4 102.399 4C102.742 4 102.985 4.09555 103.129 4.28665C103.291 4.47775 103.354 4.71131 103.318 4.98734C103.282 5.26337 103.156 5.52878 102.94 5.78358L93.7299 15.8481L93.7569 14.4467L103.372 24.9253C103.642 25.2225 103.786 25.5304 103.804 25.8489C103.822 26.1462 103.741 26.401 103.561 26.6133C103.399 26.8044 103.147 26.8999 102.805 26.8999C102.534 26.8999 102.3 26.8256 102.102 26.677C101.922 26.5496 101.715 26.3479 101.481 26.0718L92.2444 16.1029H92.1904V25.5304C92.1904 25.9551 92.1004 26.2948 91.9203 26.5496C91.7403 26.7832 91.4612 26.8999 91.0831 26.8999Z" fill="#FF671F"/>
<path d="M84.1464 26.8999C83.7863 26.8999 83.5072 26.7832 83.3092 26.5496C83.1291 26.2948 83.0391 25.9551 83.0391 25.5304V5.36954C83.0391 4.92364 83.1291 4.58391 83.3092 4.35035C83.5072 4.11678 83.7863 4 84.1464 4C84.5065 4 84.7766 4.11678 84.9567 4.35035C85.1547 4.58391 85.2537 4.92364 85.2537 5.36954V25.5304C85.2537 25.9551 85.1637 26.2948 84.9837 26.5496C84.8036 26.7832 84.5245 26.8999 84.1464 26.8999Z" fill="#FFC72C"/>
<path d="M66.0029 26.6771C65.6068 26.6771 65.3007 26.5603 65.0846 26.3267C64.8866 26.0719 64.7875 25.711 64.7875 25.2438V5.65626C64.7875 5.18913 64.8866 4.83878 65.0846 4.60522C65.3007 4.35042 65.6068 4.22302 66.0029 4.22302H72.4038C73.7182 4.22302 74.8255 4.45659 75.7258 4.92372C76.6441 5.36961 77.3463 6.02784 77.8324 6.8984C78.3186 7.76896 78.5617 8.83061 78.5617 10.0834C78.5617 11.4848 78.2106 12.6526 77.5083 13.5868C76.8241 14.5211 75.8879 15.1369 74.6995 15.4341V14.9882C76.0499 15.1793 77.1032 15.7526 77.8594 16.7081C78.6337 17.6636 79.0208 18.927 79.0208 20.4982C79.0208 22.4941 78.4716 24.0229 77.3733 25.0846C76.275 26.1462 74.7265 26.6771 72.7279 26.6771H66.0029ZM66.9482 24.575H72.5118C73.9523 24.575 75.0326 24.2353 75.7528 23.5558C76.473 22.8763 76.8331 21.8465 76.8331 20.4664C76.8331 19.065 76.473 18.0352 75.7528 17.377C75.0326 16.6975 73.9523 16.3578 72.5118 16.3578H66.9482V24.575ZM66.9482 14.2557H72.0797C73.4841 14.2557 74.5465 13.916 75.2667 13.2365C76.0049 12.557 76.374 11.5803 76.374 10.3063C76.374 8.98986 76.0049 8.00252 75.2667 7.34429C74.5465 6.66483 73.4841 6.3251 72.0797 6.3251H66.9482V14.2557Z" fill="#FF671F"/>
</svg>
